<?xml version="1.0" encoding="utf-8"?>
<!-- Generator: Adobe Illustrator 18.0.0, SVG Export Plug-In . SVG Version: 6.00 Build 0)  -->
<!DOCTYPE svg PUBLIC "-//W3C//DTD SVG 1.1//EN" "http://www.w3.org/Graphics/SVG/1.1/DTD/svg11.dtd">
<svg version="1.1" id="Layer_1" xmlns="http://www.w3.org/2000/svg" xmlns:xlink="http://www.w3.org/1999/xlink" x="0px" y="0px"
	 viewBox="0 0 404.9 403.9" enable-background="new 0 0 404.9 403.9" xml:space="preserve">
<circle fill="#191919" stroke="#000000" stroke-miterlimit="10" cx="203" cy="202" r="202"/>
<path fill="#FFFFFF" d="M50.2,298.9c-1.2,0-2.4-0.3-3.4-0.9c-3.2-1.9-4.4-6-2.5-9.3l103-178.6c1.2-2.1,3.5-3.4,5.9-3.4
	c1.2,0,2.4,0.3,3.4,0.9c1.6,0.9,2.7,2.4,3.2,4.1c0.5,1.8,0.2,3.6-0.7,5.1l-103,178.6C54.9,297.6,52.7,298.9,50.2,298.9z"/>
<path fill="#FFFFFF" d="M48.3,295.4L48.3,295.4c-1.8-1-2.4-3.4-1.4-5.2l103-178.6c1-1.8,3.4-2.4,5.2-1.4v0c1.8,1,2.4,3.4,1.4,5.2
	L53.5,294C52.5,295.8,50.2,296.4,48.3,295.4z"/>
<path fill="#FFFFFF" d="M256.2,298.9c-2.4,0-4.7-1.3-5.9-3.4l-103-178.6c-1.9-3.2-0.8-7.4,2.5-9.3c1-0.6,2.2-0.9,3.4-0.9
	c2.4,0,4.7,1.3,5.9,3.4l103,178.6c1.9,3.2,0.8,7.4-2.5,9.3C258.6,298.6,257.4,298.9,256.2,298.9L256.2,298.9z"/>
<path fill="#FFFFFF" d="M258.1,295.4L258.1,295.4c1.8-1,2.4-3.4,1.4-5.2l-103-178.6c-1-1.8-3.4-2.4-5.2-1.4l0,0
	c-1.8,1-2.4,3.4-1.4,5.2l103,178.6C254,295.8,256.3,296.4,258.1,295.4z"/>
<path fill="#FFFFFF" d="M150.2,298.9c-1.2,0-2.4-0.3-3.4-0.9c-3.2-1.9-4.4-6-2.5-9.3l103-178.6c1.2-2.1,3.5-3.4,5.9-3.4
	c1.2,0,2.4,0.3,3.4,0.9c3.2,1.9,4.4,6,2.5,9.3l-103,178.6C154.9,297.6,152.7,298.9,150.2,298.9z"/>
<path fill="#FFFFFF" d="M148.3,295.4L148.3,295.4c-1.8-1-2.4-3.4-1.4-5.2l103-178.6c1-1.8,3.4-2.4,5.2-1.4v0c1.8,1,2.4,3.4,1.4,5.2
	L153.5,294C152.5,295.8,150.2,296.4,148.3,295.4z"/>
<path fill="#FFFFFF" d="M356.2,298.9c-2.4,0-4.7-1.3-5.9-3.4l-103-178.6c-1.9-3.2-0.8-7.4,2.5-9.3c1-0.6,2.2-0.9,3.4-0.9
	c2.4,0,4.7,1.3,5.9,3.4l103,178.6c1.9,3.2,0.8,7.4-2.5,9.3C358.6,298.6,357.4,298.9,356.2,298.9L356.2,298.9z"/>
<path fill="#FFFFFF" d="M358.1,295.4L358.1,295.4c1.8-1,2.4-3.4,1.4-5.2l-103-178.6c-1-1.8-3.4-2.4-5.2-1.4l0,0
	c-1.8,1-2.4,3.4-1.4,5.2l103,178.6C354,295.8,356.3,296.4,358.1,295.4z"/>
<path fill="#FFFFFF" d="M203.1,208.6c-3.7,0-6.8-3-6.8-6.8c0-3.7,3-6.8,6.8-6.8l98.4-0.1c3.7,0,6.8,3,6.8,6.8c0,3.7-3,6.8-6.8,6.8
	L203.1,208.6C203.1,208.6,203.1,208.6,203.1,208.6z"/>
<path fill="#FFFFFF" d="M305.3,201.7L305.3,201.7c0-2.1-1.7-3.8-3.8-3.8l-98.4,0.1c-2.1,0-3.8,1.7-3.8,3.8v0c0,2.1,1.7,3.8,3.8,3.8
	l98.4-0.1C303.6,205.5,305.3,203.8,305.3,201.7z"/>
<linearGradient id="SVGID_1_" gradientUnits="userSpaceOnUse" x1="204.9929" y1="201.3866" x2="196.0811" y2="211.8956">
	<stop  offset="0" style="stop-color:#848689"/>
	<stop  offset="0.2837" style="stop-color:#ADAFB1"/>
	<stop  offset="0.5917" style="stop-color:#D7D8DA"/>
	<stop  offset="0.8248" style="stop-color:#F2F2F3"/>
	<stop  offset="0.9537" style="stop-color:#FFFFFF"/>
</linearGradient>
<polygon fill="url(#SVGID_1_)" points="195.4,200.2 203.2,213.8 199.3,220.6 191.5,207 "/>
</svg>
